# xmcd CD database file
#
# Track frame offsets:
#	150
#	16582
#	37283
#	51342
#	80662
#	97844
#	107199
#	125959
#	140345
#	154410
#	181500
#	199424
#
# Disc length: 2838 seconds
#
# Revision: 0
# Processed by: cddbd v1.5.2PL0 Copyright (c) Steve Scherf et al.
# Submitted via: CDex 1.51
#
DISCID=a60b140c
DTITLE=Johnny Dickinson and Paul Lamb - Playin' With The Blues
DYEAR=2008
DGENRE=Blues
TTITLE0=Don't You Lie To Me
TTITLE1=Hesitation Blues
TTITLE2=Busy Bootin'
TTITLE3=Trained Rolled In The Station
TTITLE4=Lost Lover Blues
TTITLE5=Don't Get Around Much Anymore
TTITLE6=Crow Jane
TTITLE7=Blues When It Rains
TTITLE8=Ya Ya Blues
TTITLE9=Blues For Lonnie
TTITLE10=Poor Boy
TTITLE11=Playin' Withe The Blues
EXTD=YEAR: 2008
EXTT0=
EXTT1=
EXTT2=
EXTT3=
EXTT4=
EXTT5=
EXTT6=
EXTT7=
EXTT8=
EXTT9=
EXTT10=
EXTT11=
PLAYORDER=
